PathFileType	4	(X/Y/Z)	C:/Users/beibeiliu/ov580/test_trc/capture2\sequence.38_training_dense_right.trc
DataRate	CameraRate	NumFrames	NumMarkers	Units	OrigDataRate	OrigDataStartFrame	OrigNumFrames
120	120	10	19	mm	120	351	400
Frame#	Time	ThumbCMC			ThumbMCP			ThumbIP			ThumbTip			IndexMCP			IndexPIP			IndexTip			MiddleMCP			MiddlePIP			MiddleTip			RingMCP			RingPIP			RingTip			PinkyMCP			PinkyPIP			PinkyTip			BackHand1			BackHand2			BackHand3	
		X0	Y0	Z0	X1	Y1	Z1	X2	Y2	Z2	X3	Y3	Z3	X4	Y4	Z4	X5	Y5	Z5	X6	Y6	Z6	X7	Y7	Z7	X8	Y8	Z8	X9	Y9	Z9	X10	Y10	Z10	X11	Y11	Z11	X12	Y12	Z12	X13	Y13	Z13	X14	Y14	Z14	X15	Y15	Z15	X16	Y16	Z16	X17	Y17	Z17	X18	Y18	Z18	
350	2.91667	178.921	10.5522	50.4556	157.073	30.1187	29.372	141.215	33.419	7.23978	124.91	28.4122	-13.0807	185.85	-12.7964	-16.5434	180.282	-5.02429	-43.3191	161.656	8.74505	-63.6508	165.47	-32.0212	-21.1196	156.954	-26.577	-48.4996	136.702	-13.1216	-70.4882	146.519	-37.2051	-13.9489	130.585	-30.9751	-42.8754	121.73	-9.2658	-59.054	124.254	-42.882	-1.3488	107.431	-43.2916	-16.7768	95.1596	-41.1723	-41.2426	155.861	-47.2142	34.1723	157.394	-49.872	66.2113	183.949	-32.7042	46.0564	
351	2.925	178.003	9.66723	51.9648	156.904	29.4535	31.9073	142.655	37.4359	7.19967	124.861	23.5903	-10.7124	182.999	-14.9087	-15.0008	174.926	-4.85433	-46.3247	162.68	8.4617	-62.0519	165.05	-32.5727	-17.7952	157.457	-26.5653	-47.0399	139.444	-10.6094	-69.4641	145.288	-37.3745	-14.1326	130.445	-28.2114	-41.3958	115.645	-8.85615	-53.7463	125.693	-42.4105	2.26403	109.478	-42.8093	-19.7553	93.5755	-41.352	-42.5515	157.188	-44.0966	32.7028	160.406	-49.3961	65.8297	183.804	-31.499	43.3865	
352	2.93333	179.584	11.1093	49.5274	157.692	31.6607	31.6739	142.132	35.7149	5.02301	127.615	29.2876	-8.64248	185.73	-13.2745	-15.2747	177.518	-6.98337	-43.0639	162.028	7.37442	-62.3482	164.913	-31.8809	-22.6347	156.916	-25.1567	-48.6571	139.632	-6.57837	-71.8304	144.106	-37.2541	-13.0909	131.289	-28.6951	-38.4332	117.893	-1.33881	-53.8603	125.07	-43.4925	3.33094	111.637	-43.9186	-19.598	97.4708	-40.3639	-42.5351	154.115	-47.6639	36.6039	157.636	-48.1228	66.8456	186.092	-29.1776	43.4908	
353	2.94167	179.733	11.5219	53.499	157.239	30.4608	27.3123	141.719	34.364	5.10117	125.925	29.5537	-12.9896	182.918	-15.8299	-15.7673	180.3	-5.38189	-43.6213	160.44	7.52481	-62.9853	164.284	-32.423	-19.4106	153.137	-29.3895	-46.5788	134.688	-9.59615	-69.2619	142.512	-38.7162	-15.4975	129.569	-24.3137	-41.2567	116.889	-2.55817	-49.746	124.063	-44.4994	2.48288	113.575	-43.9486	-17.5775	98.3563	-39.3829	-41.5783	155.979	-46.5372	37.98	161.323	-47.8664	61.9291	183.341	-31.1108	48.82	
354	2.95	180.311	12.583	52.3348	158.333	32.5016	31.4763	142.947	36.0393	7.80056	127.439	33.0987	-11.7096	186.214	-14.2916	-18.2876	178.35	-5.31319	-45.0538	165.038	6.41985	-63.3035	165.833	-32.4374	-23.2107	153.713	-28.1035	-47.514	135.861	-7.18352	-71.3908	144.464	-37.2014	-13.2939	127.066	-26.3123	-39.7047	114.462	0.470055	-50.1736	124.435	-45.4875	-0.943518	110.376	-45.5999	-17.7314	97.0663	-39.6847	-40.3867	153.96	-46.7586	37.1198	161.506	-45.5313	63.1441	183.033	-31.5889	48.8957	
355	2.95833	179.984	12.4122	54.4178	157.143	33.4519	27.777	144.627	39.0555	9.15441	126.487	31.6996	-12.0429	183.346	-15.7591	-16.7326	181.918	-3.91087	-46.6728	165.09	7.89746	-65.8011	164.086	-32.8217	-18.4678	154.347	-28.0841	-47.6213	139.195	-7.93225	-70.0268	143.15	-36.8438	-16.7391	130.372	-23.5831	-41.041	114.827	2.78184	-49.5161	125.332	-44.9432	-1.70512	111.012	-44.6834	-16.5008	97.211	-41.9067	-39.2678	155.492	-46.4373	33.8965	159.948	-46.8459	63.9797	184.142	-29.8988	46.6364	
356	2.96667	179.713	12.6788	51.854	156.782	32.1369	28.6261	142.783	36.8903	8.17714	127.897	35.0955	-11.5662	185.277	-15.7809	-17.5541	180.833	-7.82198	-41.6906	168.988	5.54194	-63.7242	164.978	-33.8086	-22.9023	155.318	-25.8642	-49.6665	138.359	-6.74137	-69.9051	144.391	-36.726	-15.6725	127.946	-23.8066	-39.2791	114.234	-1.04314	-47.4482	122.922	-44.9772	3.1199	110.696	-44.1199	-18.018	94.9306	-39.2911	-43.2601	155.558	-47.9844	37.2019	158.196	-49.3992	64.966	186.177	-27.7999	45.3746	
357	2.975	178.419	11.2491	48.796	157.768	31.3352	31.9496	143.249	38.1029	3.78433	126.54	28.2496	-12.5559	187.41	-14.634	-16.2138	183.511	-4.73488	-45.8099	171.004	3.30138	-64.2701	167.72	-31.4427	-19.0445	155.168	-27.687	-49.0164	137.194	-11.222	-69.4613	140.685	-38.8429	-12.1528	128.539	-23.1407	-38.3901	115.06	4.1313	-45.715	126.083	-43.5295	3.01261	112.685	-42.8271	-18.1982	99.0457	-41.4702	-40.1157	156.752	-48.5341	34.7205	160.854	-47.1252	67.2378	183.12	-33.5381	45.8534	
358	2.98333	179.834	11.5424	50.4386	157.989	32.129	29.0224	143.687	36.8928	5.23237	128.563	31.9162	-13.6696	188.985	-15.2235	-15.0277	183.496	-10.972	-42.1584	171.402	3.97322	-65.6331	168.582	-33.0985	-17.8793	156.035	-30.6154	-46.1068	142.609	-10.4414	-68.8303	145.694	-36.5039	-12.8163	128.199	-21.1497	-37.5806	116.247	7.82918	-41.2516	122.951	-45.4892	4.18576	111.69	-42.8059	-19.4198	98.9415	-38.3225	-42.4428	155.678	-49.5237	34.351	158.033	-47.1973	67.1643	185.312	-31.1367	48.1935	
359	2.99167	179.286	10.3009	54.5095	157.295	26.8679	29.1773	144.351	36.1584	6.1308	128.207	29.5686	-15.1923	189.126	-16.8393	-13.6366	186.881	-8.36623	-45.6982	172.132	-0.842138	-65.0068	164.74	-35.1493	-17.6628	155.804	-30.7135	-45.5595	143.124	-9.4489	-69.8462	140.987	-37.017	-15.5334	126.56	-18.8134	-36.8162	118.903	10.3544	-37.7105	123.795	-42.9734	-1.21853	114.349	-40.9556	-18.0783	97.2013	-40.6284	-39.2209	155.158	-46.3151	39.2207	158.831	-49.1696	65.7798	184.135	-32.6739	48.2351	
